<svg width="238" height="78" viewBox="0 0 238 78" fill="none" xmlns="http://www.w3.org/2000/svg">
<path d="M52.0333 78L48.1 73.2667C45.7889 74.5111 43.3222 75.4667 40.7 76.1333C38.1222 76.8444 35.4333 77.2 32.6333 77.2C28.2333 77.2 24.1222 76.4 20.3 74.8C16.4778 73.1556 13.1 70.9111 10.1667 68.0667C7.27778 65.2222 5.01111 61.9111 3.36667 58.1333C1.72223 54.3556 0.900003 50.3111 0.900003 46C0.900003 41.6889 1.72223 37.6444 3.36667 33.8667C5.01111 30.0889 7.27778 26.7778 10.1667 23.9333C13.1 21.0889 16.4778 18.8667 20.3 17.2667C24.1222 15.6222 28.2333 14.8 32.6333 14.8C37.0333 14.8 41.1444 15.6222 44.9667 17.2667C48.7889 18.8667 52.1445 21.0889 55.0333 23.9333C57.9667 26.7778 60.2556 30.0889 61.9 33.8667C63.5445 37.6444 64.3667 41.6889 64.3667 46C64.3667 50 63.6333 53.8 62.1667 57.4C60.7444 60.9556 58.7667 64.1111 56.2333 66.8667L65.5 78H52.0333ZM32.6333 65.6C35.3889 65.6 38.0111 65.0444 40.5 63.9333L25.5667 46H38.9L48.3667 57.3333C49.4778 55.7333 50.3222 53.9778 50.9 52.0667C51.5222 50.1556 51.8333 48.1333 51.8333 46C51.8333 42.3556 50.9667 39.0667 49.2333 36.1333C47.5444 33.1556 45.2556 30.8 42.3667 29.0667C39.4778 27.2889 36.2333 26.4 32.6333 26.4C29.0333 26.4 25.7667 27.2889 22.8333 29.0667C19.9444 30.8 17.6556 33.1556 15.9667 36.1333C14.2778 39.0667 13.4333 42.3556 13.4333 46C13.4333 49.6 14.2778 52.8889 15.9667 55.8667C17.6556 58.8444 19.9444 61.2222 22.8333 63C25.7667 64.7333 29.0333 65.6 32.6333 65.6ZM70.4675 76V36H80.8675V42.8667C82.2453 40.5556 83.9786 38.7778 86.0675 37.5333C88.2008 36.2444 90.6897 35.6 93.5342 35.6L96.0675 45.8667C95.2231 45.6 94.2675 45.4667 93.2008 45.4667C89.8675 45.4667 87.1786 46.5556 85.1342 48.7333C83.0897 50.8667 82.0675 53.9333 82.0675 57.9333V76H70.4675ZM99.3371 76V36H110.937V76H99.3371ZM105.137 30.2C103.404 30.2 101.937 29.6 100.737 28.4C99.5371 27.2 98.9371 25.7333 98.9371 24C98.9371 22.2222 99.5371 20.7556 100.737 19.6C101.937 18.4 103.404 17.8 105.137 17.8C106.915 17.8 108.382 18.4 109.537 19.6C110.737 20.7556 111.337 22.2222 111.337 24C111.337 25.7333 110.737 27.2 109.537 28.4C108.382 29.6 106.915 30.2 105.137 30.2ZM137.509 77.3333C133.553 77.3333 129.931 76.3778 126.642 74.4667C123.353 72.5556 120.731 69.9778 118.775 66.7333C116.864 63.4889 115.909 59.9111 115.909 56C115.909 52.0444 116.864 48.4667 118.775 45.2667C120.731 42.0222 123.353 39.4444 126.642 37.5333C129.931 35.6222 133.553 34.6667 137.509 34.6667C141.509 34.6667 145.131 35.6222 148.375 37.5333C151.664 39.4444 154.264 42.0222 156.175 45.2667C158.131 48.4667 159.109 52.0444 159.109 56C159.109 59.9111 158.131 63.4889 156.175 66.7333C154.264 69.9778 151.664 72.5556 148.375 74.4667C145.131 76.3778 141.509 77.3333 137.509 77.3333ZM137.509 66.9333C139.509 66.9333 141.309 66.4444 142.909 65.4667C144.553 64.4889 145.842 63.1778 146.775 61.5333C147.753 59.8444 148.242 58 148.242 56C148.242 53.9556 147.753 52.1111 146.775 50.4667C145.842 48.8222 144.553 47.5111 142.909 46.5333C141.309 45.5556 139.509 45.0667 137.509 45.0667C135.509 45.0667 133.687 45.5556 132.042 46.5333C130.442 47.5111 129.153 48.8222 128.175 50.4667C127.242 52.1111 126.775 53.9556 126.775 56C126.775 58 127.242 59.8444 128.175 61.5333C129.153 63.1778 130.442 64.4889 132.042 65.4667C133.687 66.4444 135.509 66.9333 137.509 66.9333ZM179.455 77.3333C176.655 77.3333 174.011 76.6667 171.522 75.3333C169.033 73.9556 167.011 71.9778 165.455 69.4C163.944 66.7778 163.189 63.6222 163.189 59.9333V36H174.789V58.4C174.789 60.6222 175.455 62.6 176.789 64.3333C178.167 66.0667 180.078 66.9333 182.522 66.9333C184.522 66.9333 186.3 66.2222 187.855 64.8C189.455 63.3333 190.255 61.2444 190.255 58.5333V36H201.855V76H191.322V71.8C189.9 73.5778 188.144 74.9556 186.055 75.9333C184.011 76.8667 181.811 77.3333 179.455 77.3333ZM221.89 77.3333C219.178 77.3333 216.423 76.8889 213.623 76C210.867 75.1111 208.712 73.9111 207.156 72.4L210.023 61.4667C211.312 63.2444 213.09 64.8 215.356 66.1333C217.667 67.4667 220.045 68.1333 222.49 68.1333C224.134 68.1333 225.312 67.8222 226.023 67.2C226.778 66.5778 227.156 65.8222 227.156 64.9333C227.156 63.9111 226.778 63.1778 226.023 62.7333C225.267 62.2444 224.49 61.8444 223.69 61.5333L218.09 59.4C216.845 58.9111 215.423 58.2444 213.823 57.4C212.223 56.5556 210.823 55.3556 209.623 53.8C208.467 52.2444 207.89 50.2 207.89 47.6667C207.89 45.3556 208.467 43.2222 209.623 41.2667C210.778 39.3111 212.445 37.7333 214.623 36.5333C216.845 35.2889 219.512 34.6667 222.623 34.6667C225.512 34.6667 228.201 35.1556 230.69 36.1333C233.223 37.1111 235.067 38.2 236.223 39.4L233.556 49.9333C232.045 47.9778 230.245 46.4889 228.156 45.4667C226.112 44.4 224.156 43.8667 222.29 43.8667C220.867 43.8667 219.823 44.1556 219.156 44.7333C218.49 45.3111 218.156 45.9778 218.156 46.7333C218.156 47.3111 218.378 47.8889 218.823 48.4667C219.312 49 220.112 49.4889 221.223 49.9333L226.423 51.8667C227.934 52.4 229.534 53.1111 231.223 54C232.956 54.8889 234.423 56.1333 235.623 57.7333C236.823 59.2889 237.423 61.4444 237.423 64.2C237.423 68.0667 235.978 71.2222 233.09 73.6667C230.245 76.1111 226.512 77.3333 221.89 77.3333Z" fill="#006FEE"/>
<path d="M133.116 39.5C133.116 36.2556 133.538 33.5222 134.382 31.3C135.227 29.0778 136.205 27.1444 137.316 25.5C138.427 23.8111 139.405 22.2333 140.249 20.7667C141.093 19.3 141.516 17.7444 141.516 16.1C141.516 14.2778 140.916 12.9222 139.716 12.0333C138.56 11.1444 137.027 10.7 135.116 10.7C133.027 10.7 131.205 11.2111 129.649 12.2333C128.138 13.2556 126.893 14.3444 125.916 15.5V3.9C127.471 2.74444 129.138 1.85555 130.916 1.23333C132.693 0.611111 134.671 0.300001 136.849 0.300001C140.005 0.300001 142.738 0.922222 145.049 2.16666C147.36 3.41111 149.138 5.12222 150.382 7.3C151.671 9.47778 152.316 11.9889 152.316 14.8333C152.316 17.5 151.849 19.8778 150.916 21.9667C149.982 24.0111 148.871 25.9222 147.582 27.7C146.293 29.4778 145.093 31.3 143.982 33.1667C142.916 35.0333 142.227 37.1444 141.916 39.5H133.116ZM137.516 62.8333C135.56 62.8333 133.893 62.1667 132.516 60.8333C131.182 59.4556 130.516 57.7889 130.516 55.8333C130.516 53.8778 131.182 52.2333 132.516 50.9C133.893 49.5222 135.56 48.8333 137.516 48.8333C139.471 48.8333 141.116 49.5222 142.449 50.9C143.827 52.2333 144.516 53.8778 144.516 55.8333C144.516 57.7889 143.827 59.4556 142.449 60.8333C141.116 62.1667 139.471 62.8333 137.516 62.8333Z" fill="#006FEE"/>
</svg>
