<svg width="56" height="48" viewBox="0 0 56 48" fill="none" xmlns="http://www.w3.org/2000/svg">
<path fill-rule="evenodd" clip-rule="evenodd" d="M31.5 20.5712C31.5 23.9208 31.4999 25.2471 31.4998 27.4294C31.4998 29.3229 29.9329 30.8569 28 30.8569C26.0671 30.8569 24.5002 29.3229 24.5001 27.4294C24.5 25.2471 24.5 23.9208 24.5 20.5712C24.5 17.2216 24.5 18.4668 24.5001 16.2844C24.5002 14.391 26.0671 12.8569 28 12.8569C29.9329 12.8569 31.4998 14.391 31.4998 16.2844C31.4999 18.4668 31.5 17.2216 31.5 20.5712ZM28 42.0002C26.067 42.0002 24.5 40.4652 24.5 38.5716C24.5 36.6781 26.067 35.1431 28 35.1431C29.933 35.1431 31.5 36.6781 31.5 38.5716C31.5 40.4652 29.933 42.0002 28 42.0002ZM55.3758 40.4239L31.9678 2.52954C31.1354 0.943928 29.6532 0 28 0C26.3467 0 24.8645 0.943928 24.0322 2.52954L0.624259 40.4239C-0.208086 41.9971 -0.208086 43.8848 0.624259 45.4705C1.45649 47.0561 2.93875 48 4.59206 48H51.408C53.0612 48 54.5435 47.0561 55.3758 45.4705C56.2081 43.8974 56.2081 42.0096 55.3758 40.4239Z" fill="#ff4545"/>
</svg>
